<svg xmlns="http://www.w3.org/2000/svg" width="32" height="32" viewBox="0 0 32 32" fill="none">
  <rect width="32" height="32" rx="6" fill="#1B3A6B"/>
  <!-- Hexagonal D logo shape -->
  <path d="M16 4L26 10V22L16 28L6 22V10L16 4Z" fill="none" stroke="white" stroke-width="1.5"/>
  <path d="M16 7L23 11V21L16 25L9 21V11L16 7Z" fill="none" stroke="white" stroke-width="1.2"/>
  <!-- D letter -->
  <path d="M12 12H16C18.5 12 20 13.5 20 16C20 18.5 18.5 20 16 20H12V12Z" fill="white"/>
  <path d="M14 14V18H16C17.5 18 18 17 18 16C18 15 17.5 14 16 14H14Z" fill="#1B3A6B"/>
</svg>
